<?xml version="1.0" standalone="no"?><!DOCTYPE svg PUBLIC "-//W3C//DTD SVG 1.1//EN" "http://www.w3.org/Graphics/SVG/1.1/DTD/svg11.dtd"><svg t="1685435439004" class="icon" viewBox="0 0 1024 1024" version="1.1" xmlns="http://www.w3.org/2000/svg" p-id="18164" id="mx_n_1685435439005" xmlns:xlink="http://www.w3.org/1999/xlink" width="20" height="20"><path d="M514.514214 24.944949C293.978191 27.53311 114.902053 206.55995 114.902053 424.53246c0 212.72224 140.155116 332.073466 194.605108 386.572756 54.49929 54.49929 205.031702 199.756782 205.031702 199.756782s134.929495-132.316684 202.344944-197.193269c67.3908-64.901235 194.629757-173.850516 194.629757-386.597405C911.464266 206.55995 727.236454 27.53311 514.514214 24.944949z" fill="#efb336" p-id="18165" data-spm-anchor-id="a313x.7781069.0.i53" class="selected"></path><path d="M514.514214 97.586019c178.977541 0 326.946441 145.306791 326.946441 326.921792s-147.9689 324.308981-326.946441 324.308981c-179.076138 0-326.97109-145.306791-326.97109-326.921792s147.894952-324.308981 326.97109-324.308981z" fill="#FCFCFC" p-id="18166"></path><path d="M410.9138 440.110729c-35.125051 3.130443-70.496594 2.612811-105.523048-1.528248 5.718605-21.173627 10.475892-40.72041 16.416339-59.897456a17.599499 17.599499 0 0 1 10.57449-8.651855c10.032208-3.672725 20.458802-6.16229 31.057939-7.419396 29.406446-2.292372 58.837542-3.82062 88.268638-5.077727 3.475531-7.123607 6.753869-14.271863 10.056857-21.39547-10.303348-1.306405-20.631346-2.193775-30.959344-3.426233a225.786294 225.786294 0 0 0-65.961148 5.620008c-8.405363 2.021231-16.909323 3.79597-25.339336 6.16229-22.208892 6.137641-39.118215 17.303709-43.382519 41.780324a431.85326 431.85326 0 0 1-11.289315 43.06208 10.894928 10.894928 0 0 1-5.891149 6.975712c-15.972655-0.59158-21.370821 9.36668-24.378017 21.937751a17.254411 17.254411 0 0 0 0.591579 7.517994l16.835376 2.834653c1.75009 22.332138 3.302987 44.516381 5.127025 66.651325 0.961317 11.930193 1.47895 23.934333 3.475531 35.74128 0.59158 5.792552 3.007197 11.289315 6.926414 15.652216 2.514214 2.736057 43.136028-0.788773 50.407529-4.313603 3.401584-1.577546 3.574128-19.177045 5.472113-29.751534l55.115519-4.70799c2.243073-28.494427 4.954481-56.988855 7.813784-85.433984 1.133861-7.517993 2.686758-14.962039 4.68334-22.332137h-0.098597z m-60.489035 58.812892a14.764846 14.764846 0 0 1-9.218786 7.887731c-5.27492 1.552897-10.722384 2.464916-16.219146 2.760706-8.060275-0.098597-16.243796 0.369737-24.205474-0.566931-10.327997-1.18316-13.877476-8.306766-11.979491-21.839154a10.697735 10.697735 0 0 1 15.159233-8.701153c13.48309 3.130443 26.768986 7.02501 39.83304 11.659052a11.880894 11.880894 0 0 1 6.605975 8.849048l0.024649-0.049299z m289.233228-193.717738c10.327997 2.464916 20.729942 4.634042 30.983992 7.468695 27.188022 7.517993 47.720771 21.124329 53.04499 51.023759 3.598777 17.772043 8.232819 35.346894 13.803529 52.625953a13.014756 13.014756 0 0 0 7.197554 8.50396c19.497485-0.764124 26.004862 11.43721 29.751535 26.744337a18.979852 18.979852 0 0 1-0.88737 9.218786c-7.517993 1.257107-15.060636 2.612811-20.458802 3.50018-2.070529 27.26197-4.067111 54.376044-6.236237 81.46547-1.133861 14.567653-1.799389 29.258551-4.165708 43.65366-0.714826 7.148256-3.746672 13.877476-8.602556 19.177045-3.031847 3.376935-52.576656-0.985966-61.5243-5.25027-4.141059-1.947284-4.313603-23.392052-6.679922-36.431457l-181.713598-15.479672c-5.472113 11.609754 1.75009 27.040127-12.916159 34.681367-4.436849 2.440267-57.974821-1.947284-59.971403-6.16229a29.233902 29.233902 0 0 1-4.781937-17.821342c2.34167-34.459524 5.718605-68.919048 9.095539-103.329273 1.133861-7.517993 2.686758-14.986688 4.68334-22.307489l-20.877837-7.591941a23.416701 23.416701 0 0 1 1.059914-11.511157c6.679922-13.655634 15.775462-22.504682 33.276364-19.053799a14.444407 14.444407 0 0 0 9.440628-7.690538c10.25405-20.360205 20.113714-40.917603 29.60364-61.647546 5.324218-12.521773 16.71213-21.444768 30.17057-23.613894 18.46222-3.352286 37.442072-4.732638 56.126134-7.02501a275.331103 275.331103 0 0 1 80.627398 6.778519l-0.049298 0.073947z m72.542474 122.45702c-6.951063-25.906266-12.768264-49.766651-19.965819-73.158703a21.39547 21.39547 0 0 0-12.916159-10.574489 168.846737 168.846737 0 0 0-37.935055-9.07089 3258.05185 3258.05185 0 0 0-117.132802-6.630624 31.403028 31.403028 0 0 0-33.424259 22.134945c-6.926414 18.388272-15.430373 36.184965-24.279422 56.298678a598.309029 598.309029 0 0 0 245.678165 20.927136v0.073947z m-23.885035 86.617144c9.810365-0.147895 19.768625 0.419036 29.529692-0.690176 12.546422-1.503599 16.909323-10.180103 14.66625-26.695039a13.285897 13.285897 0 0 0-18.708712-10.648437c-16.41634 3.82062-32.586188 8.577907-48.484895 14.271863a14.148617 14.148617 0 0 0-8.084924 10.820981 18.215728 18.215728 0 0 0 11.14142 9.613172c6.482729 1.824038 13.211949 2.982548 19.941169 3.327636-0.098597 0.419036 0-0.443685 0 0z m-216.419613-18.536167c8.553258 0.517632 17.131165 0.468334 25.659774-0.049298 9.637821-1.207809 13.630985-11.831596 5.644657-16.490288a410.211299 410.211299 0 0 0-54.573237-26.07881 10.968876 10.968876 0 0 0-14.37046 11.14142c-1.232458 9.711769-5.200972 20.976434 8.479311 25.265388 9.588523 2.612811 19.32494 4.707989 29.135306 6.236237h0.024649zM497.481646 224.307344l-29.850132 63.496233-8.405363-78.926606 38.255495 15.430373z m-149.521797-15.627566l100.223479 78.236429-57.70368-113.607972-42.519799 35.371543z m0 0" fill="#efb336" p-id="18167" data-spm-anchor-id="a313x.7781069.0.i52" class="selected"></path></svg>