<?xml version="1.0" standalone="no"?><!DOCTYPE svg PUBLIC "-//W3C//DTD SVG 1.1//EN" "http://www.w3.org/Graphics/SVG/1.1/DTD/svg11.dtd"><svg t="1685367281062" class="icon" viewBox="0 0 1024 1024" version="1.1" xmlns="http://www.w3.org/2000/svg" p-id="11186" id="mx_n_1685367281063" xmlns:xlink="http://www.w3.org/1999/xlink" width="20" height="20"><path d="M516.202682 28.100041C295.642009 30.688203 116.590521 209.715042 116.590521 427.662903c0 212.746889 140.130467 332.147414 194.580458 386.622055 54.49929 54.474641 205.031702 199.781431 205.031703 199.781431s134.904846-132.341333 202.369593-197.19327c67.440098-64.901235 194.580459-173.875165 194.580458-386.622054-0.024649-220.536023-184.203163-399.562863-396.950051-402.151024z m0 0" fill="#0A73C1" p-id="11187"></path><path d="M516.202682 100.741112c179.002191 0 326.921792 145.306791 326.921791 326.921791s-147.919601 324.308981-326.921791 324.308982c-179.100787 0-326.97109-145.306791-326.971091-326.921792S337.101894 100.741112 516.202682 100.741112z m0 0" fill="#FCFCFC" p-id="11188"></path><path d="M728.431938 382.998628l-83.955035 55.978239c0-16.98327-7.739836-32.019257-19.694677-42.273307a97.610668 97.610668 0 0 0 47.671473-83.659244 97.955757 97.955757 0 1 0-195.911514 0c0 27.459163 11.338613 52.206918 29.529692 69.978961h-51.319548a83.314156 83.314156 0 0 0 21.789856-55.978239c0-46.389717-37.565318-83.955035-83.955034-83.955035s-83.955035 37.565318-83.955035 83.955035c0 25.290037 11.43721 47.720771 29.135306 63.101846a55.731748 55.731748 0 0 0-29.135306 48.829983v111.956479a55.978239 55.978239 0 0 0 55.97824 55.97824h223.888308a55.95359 55.95359 0 0 0 55.978239-55.97824v-14.000722l83.955035 69.978962c15.430373 0 27.976795-12.546422 27.976795-28.001445v-167.910069c0-15.479672-12.546422-28.001444-27.976795-28.001444z m-391.823027-55.95359a55.978239 55.978239 0 1 1 111.981128 0 55.978239 55.978239 0 0 1-111.981128 0z m279.841899 223.888308c0 15.430373-12.497123 27.976795-27.976795 27.976795h-223.888309a27.976795 27.976795 0 0 1-27.976795-27.976795v-111.956479c0-15.430373 12.521773-27.976795 27.976795-27.976795h223.888309c15.479672 0 27.976795 12.521773 27.976795 27.976795v111.956479z m-41.977517-167.786823a70.102207 70.102207 0 1 1 0-140.229064 70.126857 70.126857 0 1 1 0 140.229064z m153.958645 195.763618l-83.955035-69.954312v-41.977517l83.955035-55.97824v167.910069z m0 0" fill="#0A73C1" p-id="11189"></path></svg>